<?xml version="1.0" encoding="UTF-8"?>
<!DOCTYPE svg PUBLIC "-//W3C//DTD SVG 1.1//EN" "http://www.w3.org/Graphics/SVG/1.1/DTD/svg11.dtd">
<svg xmlns="http://www.w3.org/2000/svg" version="1.1" width="751px" height="748px" style="shape-rendering:geometricPrecision; text-rendering:geometricPrecision; image-rendering:optimizeQuality; fill-rule:evenodd; clip-rule:evenodd" xmlns:xlink="http://www.w3.org/1999/xlink">
<g><path style="opacity:1" fill="#fcfefd" d="M 69.5,-0.5 C 273.167,-0.5 476.833,-0.5 680.5,-0.5C 704.967,3.55752 723.967,15.8909 737.5,36.5C 737.427,38.0269 738.094,39.0269 739.5,39.5C 742.9,44.307 745.234,49.6403 746.5,55.5C 747.017,59.8078 747.351,64.1411 747.5,68.5C 746.568,81.4869 745.901,94.4869 745.5,107.5C 745.503,298.608 745.503,489.774 745.5,681C 746.554,683.382 747.221,685.882 747.5,688.5C 743.532,704.435 735.199,717.435 722.5,727.5C 719.412,728.718 716.412,730.218 713.5,732C 712.663,733.011 712.33,734.178 712.5,735.5C 702.866,741.486 692.532,745.486 681.5,747.5C 477.167,747.5 272.833,747.5 68.5,747.5C 44.1394,742.795 25.1394,730.128 11.5,709.5C 11.7148,707.821 11.0481,706.821 9.5,706.5C 4.54213,697.29 1.2088,687.623 -0.5,677.5C -0.5,474.833 -0.5,272.167 -0.5,69.5C 7.16988,30.4968 30.5032,7.16345 69.5,-0.5 Z"/></g>
<g><path style="opacity:0.012" fill="#515151" d="M 737.5,36.5 C 738.906,36.9731 739.573,37.9731 739.5,39.5C 738.094,39.0269 737.427,38.0269 737.5,36.5 Z"/></g>
<g><path style="opacity:1" fill="#ecedea" d="M 746.5,55.5 C 747.887,57.8766 748.721,60.5432 749,63.5C 749.667,270.167 749.667,476.833 749,683.5C 748.802,685.382 748.302,687.048 747.5,688.5C 747.221,685.882 746.554,683.382 745.5,681C 745.503,489.774 745.503,298.608 745.5,107.5C 745.901,94.4869 746.568,81.4869 747.5,68.5C 747.351,64.1411 747.017,59.8078 746.5,55.5 Z"/></g>
<g><path style="opacity:1" fill="#010101" d="M 340.5,66.5 C 412.339,64.5646 462.839,96.2313 492,161.5C 510.486,207.728 521.486,255.728 525,305.5C 527.955,345.535 531.288,385.535 535,425.5C 543.002,504.835 567.002,578.835 607,647.5C 610.881,654.595 614.215,661.929 617,669.5C 618.945,675.805 616.779,679.305 610.5,680C 586.644,680.202 564.644,673.869 544.5,661C 494.982,629.144 459.815,585.644 439,530.5C 438.505,528.527 438.338,526.527 438.5,524.5C 435.053,524.814 431.72,525.648 428.5,527C 409.447,535.462 389.78,542.129 369.5,547C 341.271,552.119 331.771,541.286 341,514.5C 356.159,488.856 370.826,462.856 385,436.5C 412.825,382.029 429.492,324.362 435,263.5C 441.82,224.926 429.653,194.092 398.5,171C 358.168,149.694 322.668,155.861 292,189.5C 271.895,219.103 270.228,249.77 287,281.5C 291.931,289.932 298.431,296.932 306.5,302.5C 261.17,303.667 215.837,303.833 170.5,303C 161.611,299.387 158.444,292.887 161,283.5C 176.667,265.167 193.667,248.167 212,232.5C 206.4,171.882 228.234,124.049 277.5,89C 296.917,76.8074 317.917,69.3074 340.5,66.5 Z"/></g>
<g><path style="opacity:1" fill="#040403" d="M 347.5,226.5 C 365.651,224.484 378.151,231.817 385,248.5C 387.37,274.463 375.536,287.296 349.5,287C 327.617,278.703 320.784,263.537 329,241.5C 333.592,234.394 339.758,229.394 347.5,226.5 Z"/></g>
<g><path style="opacity:1" fill="#010101" d="M 281.5,360.5 C 279.413,364.49 278.08,368.823 277.5,373.5C 273.859,387.34 270.859,401.34 268.5,415.5C 267.028,419.919 266.362,424.586 266.5,429.5C 258.183,492.503 274.35,548.17 315,596.5C 341.599,624.277 372.432,645.944 407.5,661.5C 407.511,663.017 408.177,664.184 409.5,665C 409.167,665.333 408.833,665.667 408.5,666C 332.834,666.5 257.167,666.667 181.5,666.5C 171.962,664.781 168.462,659.115 171,649.5C 183.894,624.935 202.061,605.102 225.5,590C 202.226,570.281 193.559,545.448 199.5,515.5C 199.167,514.833 198.833,514.167 198.5,513.5C 188.664,519.586 178.664,525.419 168.5,531C 155.931,537.106 144.764,535.272 135,525.5C 130.929,519.384 129.595,512.717 131,505.5C 133.174,498.152 136.174,491.152 140,484.5C 163.317,446.829 190.817,412.329 222.5,381C 243.09,362.74 265.09,346.406 288.5,332C 292.668,331.45 293.168,332.283 290,334.5C 287.454,343.384 284.621,352.051 281.5,360.5 Z"/></g>
<g><path style="opacity:1" fill="#453e3a" d="M 281.5,360.5 C 280.92,365.177 279.587,369.51 277.5,373.5C 278.08,368.823 279.413,364.49 281.5,360.5 Z"/></g>
<g><path style="opacity:1" fill="#b4b2b2" d="M 268.5,415.5 C 268.638,420.414 267.972,425.081 266.5,429.5C 266.362,424.586 267.028,419.919 268.5,415.5 Z"/></g>
<g><path style="opacity:1" fill="#1d1e1d" d="M 407.5,661.5 C 410.032,662.596 412.365,663.929 414.5,665.5C 413.817,667.176 412.483,667.843 410.5,667.5C 333.998,667.833 257.665,667.499 181.5,666.5C 257.167,666.667 332.834,666.5 408.5,666C 408.833,665.667 409.167,665.333 409.5,665C 408.177,664.184 407.511,663.017 407.5,661.5 Z"/></g>
<g><path style="opacity:1" fill="#7c7874" d="M 414.5,665.5 C 415.627,666.122 416.627,666.955 417.5,668C 414.961,668.796 412.628,668.629 410.5,667.5C 412.483,667.843 413.817,667.176 414.5,665.5 Z"/></g>
<g><path style="opacity:0.322" fill="#6a6a6a" d="M 9.5,706.5 C 11.0481,706.821 11.7148,707.821 11.5,709.5C 10.5987,708.71 9.93205,707.71 9.5,706.5 Z"/></g>
<g><path style="opacity:0.902" fill="#b9bab8" d="M 722.5,727.5 C 719.48,730.516 716.146,733.183 712.5,735.5C 712.33,734.178 712.663,733.011 713.5,732C 716.412,730.218 719.412,728.718 722.5,727.5 Z"/></g>
</svg>
